<svg xmlns="http://www.w3.org/2000/svg" width="21" height="21" viewBox="0 0 21 21"><defs><style>.a{fill-rule:evenodd;}</style></defs><path class="a" d="M10.5,19.688A9.188,9.188,0,1,0,1.313,10.5,9.187,9.187,0,0,0,10.5,19.688ZM10.5,21A10.5,10.5,0,1,0,0,10.5,10.5,10.5,0,0,0,10.5,21Z"/><path class="a" d="M18.056,10.965a.966.966,0,1,1,1.38,1.353l-5.142,6.427a.966.966,0,0,1-1.391.026L9.5,15.363A.966.966,0,1,1,10.861,14l2.7,2.7,4.473-5.7a.3.3,0,0,1,.026-.028Z" transform="translate(-3.722 -4.369)"/></svg>